<svg version="1.1" xmlns="http://www.w3.org/2000/svg" xmlns:xlink="http://www.w3.org/1999/xlink" width="996" height="428"><defs/><g><text fill="#eeeeee" stroke="none" font-family="Arial" font-size="24px" font-style="normal" font-weight="normal" text-decoration="none" x="0" y="0">UNREGISTERED</text><text fill="#eeeeee" stroke="none" font-family="Arial" font-size="24px" font-style="normal" font-weight="normal" text-decoration="none" x="0" y="30">UNREGISTERED</text><text fill="#eeeeee" stroke="none" font-family="Arial" font-size="24px" font-style="normal" font-weight="normal" text-decoration="none" x="0" y="60">UNREGISTERED</text><text fill="#eeeeee" stroke="none" font-family="Arial" font-size="24px" font-style="normal" font-weight="normal" text-decoration="none" x="0" y="90">UNREGISTERED</text><text fill="#eeeeee" stroke="none" font-family="Arial" font-size="24px" font-style="normal" font-weight="normal" text-decoration="none" x="0" y="120">UNREGISTERED</text><text fill="#eeeeee" stroke="none" font-family="Arial" font-size="24px" font-style="normal" font-weight="normal" text-decoration="none" x="0" y="150">UNREGISTERED</text><text fill="#eeeeee" stroke="none" font-family="Arial" font-size="24px" font-style="normal" font-weight="normal" text-decoration="none" x="0" y="180">UNREGISTERED</text><text fill="#eeeeee" stroke="none" font-family="Arial" font-size="24px" font-style="normal" font-weight="normal" text-decoration="none" x="0" y="210">UNREGISTERED</text><text fill="#eeeeee" stroke="none" font-family="Arial" font-size="24px" font-style="normal" font-weight="normal" text-decoration="none" x="0" y="240">UNREGISTERED</text><text fill="#eeeeee" stroke="none" font-family="Arial" font-size="24px" font-style="normal" font-weight="normal" text-decoration="none" x="0" y="270">UNREGISTERED</text><text fill="#eeeeee" stroke="none" font-family="Arial" font-size="24px" font-style="normal" font-weight="normal" text-decoration="none" x="0" y="300">UNREGISTERED</text><text fill="#eeeeee" stroke="none" font-family="Arial" font-size="24px" font-style="normal" font-weight="normal" text-decoration="none" x="0" y="330">UNREGISTERED</text><text fill="#eeeeee" stroke="none" font-family="Arial" font-size="24px" font-style="normal" font-weight="normal" text-decoration="none" x="0" y="360">UNREGISTERED</text><text fill="#eeeeee" stroke="none" font-family="Arial" font-size="24px" font-style="normal" font-weight="normal" text-decoration="none" x="0" y="390">UNREGISTERED</text><text fill="#eeeeee" stroke="none" font-family="Arial" font-size="24px" font-style="normal" font-weight="normal" text-decoration="none" x="0" y="420">UNREGISTERED</text><text fill="#eeeeee" stroke="none" font-family="Arial" font-size="24px" font-style="normal" font-weight="normal" text-decoration="none" x="200" y="0">UNREGISTERED</text><text fill="#eeeeee" stroke="none" font-family="Arial" font-size="24px" font-style="normal" font-weight="normal" text-decoration="none" x="200" y="30">UNREGISTERED</text><text fill="#eeeeee" stroke="none" font-family="Arial" font-size="24px" font-style="normal" font-weight="normal" text-decoration="none" x="200" y="60">UNREGISTERED</text><text fill="#eeeeee" stroke="none" font-family="Arial" font-size="24px" font-style="normal" font-weight="normal" text-decoration="none" x="200" y="90">UNREGISTERED</text><text fill="#eeeeee" stroke="none" font-family="Arial" font-size="24px" font-style="normal" font-weight="normal" text-decoration="none" x="200" y="120">UNREGISTERED</text><text fill="#eeeeee" stroke="none" font-family="Arial" font-size="24px" font-style="normal" font-weight="normal" text-decoration="none" x="200" y="150">UNREGISTERED</text><text fill="#eeeeee" stroke="none" font-family="Arial" font-size="24px" font-style="normal" font-weight="normal" text-decoration="none" x="200" y="180">UNREGISTERED</text><text fill="#eeeeee" stroke="none" font-family="Arial" font-size="24px" font-style="normal" font-weight="normal" text-decoration="none" x="200" y="210">UNREGISTERED</text><text fill="#eeeeee" stroke="none" font-family="Arial" font-size="24px" font-style="normal" font-weight="normal" text-decoration="none" x="200" y="240">UNREGISTERED</text><text fill="#eeeeee" stroke="none" font-family="Arial" font-size="24px" font-style="normal" font-weight="normal" text-decoration="none" x="200" y="270">UNREGISTERED</text><text fill="#eeeeee" stroke="none" font-family="Arial" font-size="24px" font-style="normal" font-weight="normal" text-decoration="none" x="200" y="300">UNREGISTERED</text><text fill="#eeeeee" stroke="none" font-family="Arial" font-size="24px" font-style="normal" font-weight="normal" text-decoration="none" x="200" y="330">UNREGISTERED</text><text fill="#eeeeee" stroke="none" font-family="Arial" font-size="24px" font-style="normal" font-weight="normal" text-decoration="none" x="200" y="360">UNREGISTERED</text><text fill="#eeeeee" stroke="none" font-family="Arial" font-size="24px" font-style="normal" font-weight="normal" text-decoration="none" x="200" y="390">UNREGISTERED</text><text fill="#eeeeee" stroke="none" font-family="Arial" font-size="24px" font-style="normal" font-weight="normal" text-decoration="none" x="200" y="420">UNREGISTERED</text><text fill="#eeeeee" stroke="none" font-family="Arial" font-size="24px" font-style="normal" font-weight="normal" text-decoration="none" x="400" y="0">UNREGISTERED</text><text fill="#eeeeee" stroke="none" font-family="Arial" font-size="24px" font-style="normal" font-weight="normal" text-decoration="none" x="400" y="30">UNREGISTERED</text><text fill="#eeeeee" stroke="none" font-family="Arial" font-size="24px" font-style="normal" font-weight="normal" text-decoration="none" x="400" y="60">UNREGISTERED</text><text fill="#eeeeee" stroke="none" font-family="Arial" font-size="24px" font-style="normal" font-weight="normal" text-decoration="none" x="400" y="90">UNREGISTERED</text><text fill="#eeeeee" stroke="none" font-family="Arial" font-size="24px" font-style="normal" font-weight="normal" text-decoration="none" x="400" y="120">UNREGISTERED</text><text fill="#eeeeee" stroke="none" font-family="Arial" font-size="24px" font-style="normal" font-weight="normal" text-decoration="none" x="400" y="150">UNREGISTERED</text><text fill="#eeeeee" stroke="none" font-family="Arial" font-size="24px" font-style="normal" font-weight="normal" text-decoration="none" x="400" y="180">UNREGISTERED</text><text fill="#eeeeee" stroke="none" font-family="Arial" font-size="24px" font-style="normal" font-weight="normal" text-decoration="none" x="400" y="210">UNREGISTERED</text><text fill="#eeeeee" stroke="none" font-family="Arial" font-size="24px" font-style="normal" font-weight="normal" text-decoration="none" x="400" y="240">UNREGISTERED</text><text fill="#eeeeee" stroke="none" font-family="Arial" font-size="24px" font-style="normal" font-weight="normal" text-decoration="none" x="400" y="270">UNREGISTERED</text><text fill="#eeeeee" stroke="none" font-family="Arial" font-size="24px" font-style="normal" font-weight="normal" text-decoration="none" x="400" y="300">UNREGISTERED</text><text fill="#eeeeee" stroke="none" font-family="Arial" font-size="24px" font-style="normal" font-weight="normal" text-decoration="none" x="400" y="330">UNREGISTERED</text><text fill="#eeeeee" stroke="none" font-family="Arial" font-size="24px" font-style="normal" font-weight="normal" text-decoration="none" x="400" y="360">UNREGISTERED</text><text fill="#eeeeee" stroke="none" font-family="Arial" font-size="24px" font-style="normal" font-weight="normal" text-decoration="none" x="400" y="390">UNREGISTERED</text><text fill="#eeeeee" stroke="none" font-family="Arial" font-size="24px" font-style="normal" font-weight="normal" text-decoration="none" x="400" y="420">UNREGISTERED</text><text fill="#eeeeee" stroke="none" font-family="Arial" font-size="24px" font-style="normal" font-weight="normal" text-decoration="none" x="600" y="0">UNREGISTERED</text><text fill="#eeeeee" stroke="none" font-family="Arial" font-size="24px" font-style="normal" font-weight="normal" text-decoration="none" x="600" y="30">UNREGISTERED</text><text fill="#eeeeee" stroke="none" font-family="Arial" font-size="24px" font-style="normal" font-weight="normal" text-decoration="none" x="600" y="60">UNREGISTERED</text><text fill="#eeeeee" stroke="none" font-family="Arial" font-size="24px" font-style="normal" font-weight="normal" text-decoration="none" x="600" y="90">UNREGISTERED</text><text fill="#eeeeee" stroke="none" font-family="Arial" font-size="24px" font-style="normal" font-weight="normal" text-decoration="none" x="600" y="120">UNREGISTERED</text><text fill="#eeeeee" stroke="none" font-family="Arial" font-size="24px" font-style="normal" font-weight="normal" text-decoration="none" x="600" y="150">UNREGISTERED</text><text fill="#eeeeee" stroke="none" font-family="Arial" font-size="24px" font-style="normal" font-weight="normal" text-decoration="none" x="600" y="180">UNREGISTERED</text><text fill="#eeeeee" stroke="none" font-family="Arial" font-size="24px" font-style="normal" font-weight="normal" text-decoration="none" x="600" y="210">UNREGISTERED</text><text fill="#eeeeee" stroke="none" font-family="Arial" font-size="24px" font-style="normal" font-weight="normal" text-decoration="none" x="600" y="240">UNREGISTERED</text><text fill="#eeeeee" stroke="none" font-family="Arial" font-size="24px" font-style="normal" font-weight="normal" text-decoration="none" x="600" y="270">UNREGISTERED</text><text fill="#eeeeee" stroke="none" font-family="Arial" font-size="24px" font-style="normal" font-weight="normal" text-decoration="none" x="600" y="300">UNREGISTERED</text><text fill="#eeeeee" stroke="none" font-family="Arial" font-size="24px" font-style="normal" font-weight="normal" text-decoration="none" x="600" y="330">UNREGISTERED</text><text fill="#eeeeee" stroke="none" font-family="Arial" font-size="24px" font-style="normal" font-weight="normal" text-decoration="none" x="600" y="360">UNREGISTERED</text><text fill="#eeeeee" stroke="none" font-family="Arial" font-size="24px" font-style="normal" font-weight="normal" text-decoration="none" x="600" y="390">UNREGISTERED</text><text fill="#eeeeee" stroke="none" font-family="Arial" font-size="24px" font-style="normal" font-weight="normal" text-decoration="none" x="600" y="420">UNREGISTERED</text><text fill="#eeeeee" stroke="none" font-family="Arial" font-size="24px" font-style="normal" font-weight="normal" text-decoration="none" x="800" y="0">UNREGISTERED</text><text fill="#eeeeee" stroke="none" font-family="Arial" font-size="24px" font-style="normal" font-weight="normal" text-decoration="none" x="800" y="30">UNREGISTERED</text><text fill="#eeeeee" stroke="none" font-family="Arial" font-size="24px" font-style="normal" font-weight="normal" text-decoration="none" x="800" y="60">UNREGISTERED</text><text fill="#eeeeee" stroke="none" font-family="Arial" font-size="24px" font-style="normal" font-weight="normal" text-decoration="none" x="800" y="90">UNREGISTERED</text><text fill="#eeeeee" stroke="none" font-family="Arial" font-size="24px" font-style="normal" font-weight="normal" text-decoration="none" x="800" y="120">UNREGISTERED</text><text fill="#eeeeee" stroke="none" font-family="Arial" font-size="24px" font-style="normal" font-weight="normal" text-decoration="none" x="800" y="150">UNREGISTERED</text><text fill="#eeeeee" stroke="none" font-family="Arial" font-size="24px" font-style="normal" font-weight="normal" text-decoration="none" x="800" y="180">UNREGISTERED</text><text fill="#eeeeee" stroke="none" font-family="Arial" font-size="24px" font-style="normal" font-weight="normal" text-decoration="none" x="800" y="210">UNREGISTERED</text><text fill="#eeeeee" stroke="none" font-family="Arial" font-size="24px" font-style="normal" font-weight="normal" text-decoration="none" x="800" y="240">UNREGISTERED</text><text fill="#eeeeee" stroke="none" font-family="Arial" font-size="24px" font-style="normal" font-weight="normal" text-decoration="none" x="800" y="270">UNREGISTERED</text><text fill="#eeeeee" stroke="none" font-family="Arial" font-size="24px" font-style="normal" font-weight="normal" text-decoration="none" x="800" y="300">UNREGISTERED</text><text fill="#eeeeee" stroke="none" font-family="Arial" font-size="24px" font-style="normal" font-weight="normal" text-decoration="none" x="800" y="330">UNREGISTERED</text><text fill="#eeeeee" stroke="none" font-family="Arial" font-size="24px" font-style="normal" font-weight="normal" text-decoration="none" x="800" y="360">UNREGISTERED</text><text fill="#eeeeee" stroke="none" font-family="Arial" font-size="24px" font-style="normal" font-weight="normal" text-decoration="none" x="800" y="390">UNREGISTERED</text><text fill="#eeeeee" stroke="none" font-family="Arial" font-size="24px" font-style="normal" font-weight="normal" text-decoration="none" x="800" y="420">UNREGISTERED</text><g transform="translate(-38,-6) scale(1,1)"><rect fill="#C0C0C0" stroke="none" x="255" y="23" width="776" height="408" opacity="0.2"/></g><g transform="translate(-38,-6) scale(1,1)"><rect fill="#ffffff" stroke="none" x="248" y="16" width="776" height="408"/></g><g transform="translate(-38,-6) scale(1,1)"><path fill="none" stroke="#000000" d="M 248 16 L 1024 16 L 1024 424 L 248 424 L 248 16 Z Z" stroke-miterlimit="10"/></g><g transform="translate(-38,-6) scale(1,1)"><g><path fill="none" stroke="none"/><text fill="#000000" stroke="none" font-family="Arial" font-size="13px" font-style="normal" font-weight="bold" text-decoration="none" x="502" y="35.5">Sistema de Control del Proceso de Inscripción</text></g></g><g transform="translate(-38,-6) scale(1,1)"><path fill="#ffffff" stroke="none" d="M 93.82072727272727 137.68 C 93.82072727272727 132.886167936 97.70656959767273 129 102.5 129 C 107.29343040232727 129 111.17927272727273 132.886167936 111.17927272727273 137.68 C 111.17927272727273 142.47383206400002 107.29343040232727 146.36 102.5 146.36 C 97.70656959767273 146.36 93.82072727272727 142.47383206400002 93.82072727272727 137.68 Z"/></g><g transform="translate(-38,-6) scale(1,1)"><path fill="none" stroke="#000000" d="M 93.82072727272727 137.68 C 93.82072727272727 132.886167936 97.70656959767273 129 102.5 129 C 107.29343040232727 129 111.17927272727273 132.886167936 111.17927272727273 137.68 C 111.17927272727273 142.47383206400002 107.29343040232727 146.36 102.5 146.36 C 97.70656959767273 146.36 93.82072727272727 142.47383206400002 93.82072727272727 137.68 Z" stroke-miterlimit="10"/></g><g transform="translate(-38,-6) scale(1,1)"><path fill="none" stroke="#000000" d="M 102.5 146.36 L 102.5 163.64" stroke-miterlimit="10"/></g><g transform="translate(-38,-6) scale(1,1)"><path fill="none" stroke="#000000" d="M 93.31018181818182 152.84 L 111.68981818181818 152.84" stroke-miterlimit="10"/></g><g transform="translate(-38,-6) scale(1,1)"><path fill="none" stroke="#000000" d="M 102.5 163.64 L 89.73636363636363 181" stroke-miterlimit="10"/></g><g transform="translate(-38,-6) scale(1,1)"><path fill="none" stroke="#000000" d="M 102.5 163.64 L 115.26363636363637 181" stroke-miterlimit="10"/></g><g transform="translate(-38,-6) scale(1,1)"><g><path fill="none" stroke="none"/><text fill="#000000" stroke="none" font-family="Arial" font-size="13px" font-style="normal" font-weight="bold" text-decoration="none" x="78.5" y="201.5">Docente</text></g></g><g transform="translate(-38,-6) scale(1,1)"><path fill="#ffffff" stroke="none" d="M 92.82072727272727 321.68 C 92.82072727272727 316.886167936 96.70656959767273 313 101.5 313 C 106.29343040232727 313 110.17927272727273 316.886167936 110.17927272727273 321.68 C 110.17927272727273 326.473832064 106.29343040232727 330.36 101.5 330.36 C 96.70656959767273 330.36 92.82072727272727 326.473832064 92.82072727272727 321.68 Z"/></g><g transform="translate(-38,-6) scale(1,1)"><path fill="none" stroke="#000000" d="M 92.82072727272727 321.68 C 92.82072727272727 316.886167936 96.70656959767273 313 101.5 313 C 106.29343040232727 313 110.17927272727273 316.886167936 110.17927272727273 321.68 C 110.17927272727273 326.473832064 106.29343040232727 330.36 101.5 330.36 C 96.70656959767273 330.36 92.82072727272727 326.473832064 92.82072727272727 321.68 Z" stroke-miterlimit="10"/></g><g transform="translate(-38,-6) scale(1,1)"><path fill="none" stroke="#000000" d="M 101.5 330.36 L 101.5 347.64" stroke-miterlimit="10"/></g><g transform="translate(-38,-6) scale(1,1)"><path fill="none" stroke="#000000" d="M 92.31018181818182 336.84 L 110.68981818181818 336.84" stroke-miterlimit="10"/></g><g transform="translate(-38,-6) scale(1,1)"><path fill="none" stroke="#000000" d="M 101.5 347.64 L 88.73636363636363 365" stroke-miterlimit="10"/></g><g transform="translate(-38,-6) scale(1,1)"><path fill="none" stroke="#000000" d="M 101.5 347.64 L 114.26363636363637 365" stroke-miterlimit="10"/></g><g transform="translate(-38,-6) scale(1,1)"><g><path fill="none" stroke="none"/><text fill="#000000" stroke="none" font-family="Arial" font-size="13px" font-style="normal" font-weight="bold" text-decoration="none" x="75.5" y="385.5">Directora</text></g></g><g transform="translate(-38,-6) scale(1,1)"><path fill="#C0C0C0" stroke="none" d="M 375 136 C 375 126.6111584 434.76997919999997 119 508.5 119 C 582.2300208 119 642 126.6111584 642 136 C 642 145.3888416 582.2300208 153 508.5 153 C 434.76997919999997 153 375 145.3888416 375 136 Z" opacity="0.2"/></g><g transform="translate(-38,-6) scale(1,1)"><path fill="#ffffff" stroke="none" d="M 368 129 C 368 119.6111584 427.76997919999997 112 501.5 112 C 575.2300208 112 635 119.6111584 635 129 C 635 138.3888416 575.2300208 146 501.5 146 C 427.76997919999997 146 368 138.3888416 368 129 Z"/></g><g transform="translate(-38,-6) scale(1,1)"><path fill="none" stroke="#000000" d="M 368 129 C 368 119.6111584 427.76997919999997 112 501.5 112 C 575.2300208 112 635 119.6111584 635 129 C 635 138.3888416 575.2300208 146 501.5 146 C 427.76997919999997 146 368 138.3888416 368 129 Z" stroke-miterlimit="10"/></g><g transform="translate(-38,-6) scale(1,1)"><g><path fill="none" stroke="none"/><text fill="#000000" stroke="none" font-family="Arial" font-size="13px" font-style="normal" font-weight="bold" text-decoration="none" x="442.5" y="136">GestionarInscripción</text></g></g><g transform="translate(-38,-6) scale(1,1)"><path fill="#C0C0C0" stroke="none" d="M 423 280 C 423 270.6111584 480.3075456 263 551 263 C 621.6924544 263 679 270.6111584 679 280 C 679 289.3888416 621.6924544 297 551 297 C 480.3075456 297 423 289.3888416 423 280 Z" opacity="0.2"/></g><g transform="translate(-38,-6) scale(1,1)"><path fill="#ffffff" stroke="none" d="M 416 273 C 416 263.6111584 473.3075456 256 544 256 C 614.6924544 256 672 263.6111584 672 273 C 672 282.3888416 614.6924544 290 544 290 C 473.3075456 290 416 282.3888416 416 273 Z"/></g><g transform="translate(-38,-6) scale(1,1)"><path fill="none" stroke="#000000" d="M 416 273 C 416 263.6111584 473.3075456 256 544 256 C 614.6924544 256 672 263.6111584 672 273 C 672 282.3888416 614.6924544 290 544 290 C 473.3075456 290 416 282.3888416 416 273 Z" stroke-miterlimit="10"/></g><g transform="translate(-38,-6) scale(1,1)"><g><path fill="none" stroke="none"/><text fill="#000000" stroke="none" font-family="Arial" font-size="13px" font-style="normal" font-weight="bold" text-decoration="none" x="495.5" y="280">GestionarEgreso</text></g></g><g transform="translate(-38,-6) scale(1,1)"><path fill="#C0C0C0" stroke="none" d="M 303 384 C 303 374.6111584 371.276568 367 455.5 367 C 539.723432 367 608 374.6111584 608 384 C 608 393.3888416 539.723432 401 455.5 401 C 371.276568 401 303 393.3888416 303 384 Z" opacity="0.2"/></g><g transform="translate(-38,-6) scale(1,1)"><path fill="#ffffff" stroke="none" d="M 296 377 C 296 367.6111584 364.276568 360 448.5 360 C 532.723432 360 601 367.6111584 601 377 C 601 386.3888416 532.723432 394 448.5 394 C 364.276568 394 296 386.3888416 296 377 Z"/></g><g transform="translate(-38,-6) scale(1,1)"><path fill="none" stroke="#000000" d="M 296 377 C 296 367.6111584 364.276568 360 448.5 360 C 532.723432 360 601 367.6111584 601 377 C 601 386.3888416 532.723432 394 448.5 394 C 364.276568 394 296 386.3888416 296 377 Z" stroke-miterlimit="10"/></g><g transform="translate(-38,-6) scale(1,1)"><g><path fill="none" stroke="none"/><text fill="#000000" stroke="none" font-family="Arial" font-size="13px" font-style="normal" font-weight="bold" text-decoration="none" x="354.5" y="384">GenerarReporteMatriculaEscolar</text></g></g><g transform="translate(-38,-6) scale(1,1)"><path fill="#ffffff" stroke="none" d="M 95.32072727272727 49.68 C 95.32072727272727 44.886167936 99.20656959767273 41 104 41 C 108.79343040232727 41 112.67927272727273 44.886167936 112.67927272727273 49.68 C 112.67927272727273 54.473832064 108.79343040232727 58.36 104 58.36 C 99.20656959767273 58.36 95.32072727272727 54.473832064 95.32072727272727 49.68 Z"/></g><g transform="translate(-38,-6) scale(1,1)"><path fill="none" stroke="#000000" d="M 95.32072727272727 49.68 C 95.32072727272727 44.886167936 99.20656959767273 41 104 41 C 108.79343040232727 41 112.67927272727273 44.886167936 112.67927272727273 49.68 C 112.67927272727273 54.473832064 108.79343040232727 58.36 104 58.36 C 99.20656959767273 58.36 95.32072727272727 54.473832064 95.32072727272727 49.68 Z" stroke-miterlimit="10"/></g><g transform="translate(-38,-6) scale(1,1)"><path fill="none" stroke="#000000" d="M 104 58.36 L 104 75.64" stroke-miterlimit="10"/></g><g transform="translate(-38,-6) scale(1,1)"><path fill="none" stroke="#000000" d="M 94.81018181818182 64.84 L 113.18981818181818 64.84" stroke-miterlimit="10"/></g><g transform="translate(-38,-6) scale(1,1)"><path fill="none" stroke="#000000" d="M 104 75.64 L 91.23636363636363 93" stroke-miterlimit="10"/></g><g transform="translate(-38,-6) scale(1,1)"><path fill="none" stroke="#000000" d="M 104 75.64 L 116.76363636363637 93" stroke-miterlimit="10"/></g><g transform="translate(-38,-6) scale(1,1)"><g><path fill="none" stroke="none"/><text fill="#000000" stroke="none" font-family="Arial" font-size="13px" font-style="normal" font-weight="bold" text-decoration="none" x="62" y="113.5">Representante</text></g></g><g transform="translate(-38,-6) scale(1,1)"><path fill="#ffffff" stroke="none" d="M 92.82072727272727 225.68 C 92.82072727272727 220.886167936 96.70656959767273 217 101.5 217 C 106.29343040232727 217 110.17927272727273 220.886167936 110.17927272727273 225.68 C 110.17927272727273 230.47383206400002 106.29343040232727 234.36 101.5 234.36 C 96.70656959767273 234.36 92.82072727272727 230.47383206400002 92.82072727272727 225.68 Z"/></g><g transform="translate(-38,-6) scale(1,1)"><path fill="none" stroke="#000000" d="M 92.82072727272727 225.68 C 92.82072727272727 220.886167936 96.70656959767273 217 101.5 217 C 106.29343040232727 217 110.17927272727273 220.886167936 110.17927272727273 225.68 C 110.17927272727273 230.47383206400002 106.29343040232727 234.36 101.5 234.36 C 96.70656959767273 234.36 92.82072727272727 230.47383206400002 92.82072727272727 225.68 Z" stroke-miterlimit="10"/></g><g transform="translate(-38,-6) scale(1,1)"><path fill="none" stroke="#000000" d="M 101.5 234.36 L 101.5 251.64" stroke-miterlimit="10"/></g><g transform="translate(-38,-6) scale(1,1)"><path fill="none" stroke="#000000" d="M 92.31018181818182 240.84 L 110.68981818181818 240.84" stroke-miterlimit="10"/></g><g transform="translate(-38,-6) scale(1,1)"><path fill="none" stroke="#000000" d="M 101.5 251.64 L 88.73636363636363 269" stroke-miterlimit="10"/></g><g transform="translate(-38,-6) scale(1,1)"><path fill="none" stroke="#000000" d="M 101.5 251.64 L 114.26363636363637 269" stroke-miterlimit="10"/></g><g transform="translate(-38,-6) scale(1,1)"><g><path fill="none" stroke="none"/><text fill="#000000" stroke="none" font-family="Arial" font-size="13px" font-style="normal" font-weight="bold" text-decoration="none" x="65" y="289.5">Subdirectora</text></g></g><g transform="translate(-38,-6) scale(1,1)"><path fill="none" stroke="#000000" d="M 140 329 L 469 147" stroke-miterlimit="10"/></g><g transform="translate(-38,-6) scale(1,1)"><path fill="none" stroke="#2b2bff" d="M 161 86 L 367 112" stroke-miterlimit="10"/></g><g transform="translate(-38,-6) scale(1,1)"><path fill="none" stroke="#ff0000" d="M 148 257 L 415 268" stroke-miterlimit="10"/></g><g transform="translate(-38,-6) scale(1,1)"><path fill="none" stroke="#00ff00" d="M 134 186 L 418 359" stroke-miterlimit="10"/></g><g transform="translate(-38,-6) scale(1,1)"><path fill="none" stroke="#00ff00" d="M 134 164 L 367 142" stroke-miterlimit="10"/></g><g transform="translate(-38,-6) scale(1,1)"><path fill="none" stroke="#ff0000" d="M 148 240 L 444 147" stroke-miterlimit="10"/></g><g transform="translate(-38,-6) scale(1,1)"><path fill="#C0C0C0" stroke="none" d="M 743 74.5 C 743 63.7304464 792.6963872 55 854 55 C 915.3036128 55 965 63.7304464 965 74.5 C 965 85.2695536 915.3036128 94 854 94 C 792.6963872 94 743 85.2695536 743 74.5 Z" opacity="0.2"/></g><g transform="translate(-38,-6) scale(1,1)"><path fill="#ffffff" stroke="none" d="M 736 67.5 C 736 56.7304464 785.6963872 48 847 48 C 908.3036128 48 958 56.7304464 958 67.5 C 958 78.2695536 908.3036128 87 847 87 C 785.6963872 87 736 78.2695536 736 67.5 Z"/></g><g transform="translate(-38,-6) scale(1,1)"><path fill="none" stroke="#000000" d="M 736 67.5 C 736 56.7304464 785.6963872 48 847 48 C 908.3036128 48 958 56.7304464 958 67.5 C 958 78.2695536 908.3036128 87 847 87 C 785.6963872 87 736 78.2695536 736 67.5 Z" stroke-miterlimit="10"/></g><g transform="translate(-38,-6) scale(1,1)"><g><path fill="none" stroke="none"/><text fill="#000000" stroke="none" font-family="Arial" font-size="13px" font-style="normal" font-weight="bold" text-decoration="none" x="780.5" y="74.5">GestionarNuevoIngreso</text></g></g><g transform="translate(-38,-6) scale(1,1)"><path fill="#C0C0C0" stroke="none" d="M 807 138.5 C 807 127.7304464 846.17508 119 894.5 119 C 942.82492 119 982 127.7304464 982 138.5 C 982 149.2695536 942.82492 158 894.5 158 C 846.17508 158 807 149.2695536 807 138.5 Z" opacity="0.2"/></g><g transform="translate(-38,-6) scale(1,1)"><path fill="#ffffff" stroke="none" d="M 800 131.5 C 800 120.7304464 839.17508 112 887.5 112 C 935.82492 112 975 120.7304464 975 131.5 C 975 142.2695536 935.82492 151 887.5 151 C 839.17508 151 800 142.2695536 800 131.5 Z"/></g><g transform="translate(-38,-6) scale(1,1)"><path fill="none" stroke="#000000" d="M 800 131.5 C 800 120.7304464 839.17508 112 887.5 112 C 935.82492 112 975 120.7304464 975 131.5 C 975 142.2695536 935.82492 151 887.5 151 C 839.17508 151 800 142.2695536 800 131.5 Z" stroke-miterlimit="10"/></g><g transform="translate(-38,-6) scale(1,1)"><g><path fill="none" stroke="none"/><text fill="#000000" stroke="none" font-family="Arial" font-size="13px" font-style="normal" font-weight="bold" text-decoration="none" x="835.5" y="138.5">Gestionar Regular</text></g></g><g transform="translate(-38,-6) scale(1,1)"><path fill="none" stroke="#000000" d="M 636 130 L 799 131" stroke-miterlimit="10" stroke-dasharray="3"/></g><g transform="translate(-38,-6) scale(1,1)"><path fill="none" stroke="#000000" d="M 788.8116916112693 135.14709201442656 L 799 131 L 788.8633411639032 126.72821493511437" stroke-miterlimit="10"/></g><g transform="translate(-38,-6) scale(1,1)"><g><path fill="none" stroke="none"/><text fill="#000000" stroke="none" font-family="Arial" font-size="13px" font-style="normal" font-weight="normal" text-decoration="none" x="690.5" y="106.5">«extend»</text></g></g><g transform="translate(-38,-6) scale(1,1)"><path fill="none" stroke="#000000" d="M 601 111 L 735 87" stroke-miterlimit="10" stroke-dasharray="3"/></g><g transform="translate(-38,-6) scale(1,1)"><path fill="none" stroke="#000000" d="M 725.7386409372439 92.93525301151551 L 735 87 L 724.2543725512211 84.64808785622212" stroke-miterlimit="10"/></g><g transform="translate(-38,-6) scale(1,1)"><g><path fill="none" stroke="none"/><text fill="#000000" stroke="none" font-family="Arial" font-size="13px" font-style="normal" font-weight="normal" text-decoration="none" x="635.5" y="75.5">«extend»</text></g></g><g transform="translate(-38,-6) scale(1,1)"><path fill="#C0C0C0" stroke="none" d="M 423 336 C 423 326.6111584 471.129384 319 530.5 319 C 589.870616 319 638 326.6111584 638 336 C 638 345.3888416 589.870616 353 530.5 353 C 471.129384 353 423 345.3888416 423 336 Z" opacity="0.2"/></g><g transform="translate(-38,-6) scale(1,1)"><path fill="#ffffff" stroke="none" d="M 416 329 C 416 319.6111584 464.129384 312 523.5 312 C 582.870616 312 631 319.6111584 631 329 C 631 338.3888416 582.870616 346 523.5 346 C 464.129384 346 416 338.3888416 416 329 Z"/></g><g transform="translate(-38,-6) scale(1,1)"><path fill="none" stroke="#000000" d="M 416 329 C 416 319.6111584 464.129384 312 523.5 312 C 582.870616 312 631 319.6111584 631 329 C 631 338.3888416 582.870616 346 523.5 346 C 464.129384 346 416 338.3888416 416 329 Z" stroke-miterlimit="10"/></g><g transform="translate(-38,-6) scale(1,1)"><g><path fill="none" stroke="none"/><text fill="#000000" stroke="none" font-family="Arial" font-size="13px" font-style="normal" font-weight="bold" text-decoration="none" x="471.5" y="336">GestionarDocente</text></g></g><g transform="translate(-38,-6) scale(1,1)"><path fill="none" stroke="#000000" d="M 140 349 L 415 335" stroke-miterlimit="10"/></g><g transform="translate(-38,-6) scale(1,1)"><path fill="none" stroke="#ff0000" d="M 148 263 L 420 311" stroke-miterlimit="10"/></g><g transform="translate(-38,-6) scale(1,1)"><path fill="#C0C0C0" stroke="none" d="M 447 184 C 447 174.6111584 497.1441024 167 559 167 C 620.8558976 167 671 174.6111584 671 184 C 671 193.3888416 620.8558976 201 559 201 C 497.1441024 201 447 193.3888416 447 184 Z" opacity="0.2"/></g><g transform="translate(-38,-6) scale(1,1)"><path fill="#ffffff" stroke="none" d="M 440 177 C 440 167.6111584 490.1441024 160 552 160 C 613.8558976 160 664 167.6111584 664 177 C 664 186.3888416 613.8558976 194 552 194 C 490.1441024 194 440 186.3888416 440 177 Z"/></g><g transform="translate(-38,-6) scale(1,1)"><path fill="none" stroke="#000000" d="M 440 177 C 440 167.6111584 490.1441024 160 552 160 C 613.8558976 160 664 167.6111584 664 177 C 664 186.3888416 613.8558976 194 552 194 C 490.1441024 194 440 186.3888416 440 177 Z" stroke-miterlimit="10"/></g><g transform="translate(-38,-6) scale(1,1)"><g><path fill="none" stroke="none"/><text fill="#000000" stroke="none" font-family="Arial" font-size="13px" font-style="normal" font-weight="bold" text-decoration="none" x="493" y="184">GestionarEstudiante</text></g></g><g transform="translate(-38,-6) scale(1,1)"><path fill="none" stroke="#00ff00" d="M 134 168 L 439 174" stroke-miterlimit="10"/></g><g transform="translate(-38,-6) scale(1,1)"><path fill="#C0C0C0" stroke="none" d="M 831 194.5 C 831 183.7304464 865.4740704 175 908 175 C 950.5259296 175 985 183.7304464 985 194.5 C 985 205.2695536 950.5259296 214 908 214 C 865.4740704 214 831 205.2695536 831 194.5 Z" opacity="0.2"/></g><g transform="translate(-38,-6) scale(1,1)"><path fill="#ffffff" stroke="none" d="M 824 187.5 C 824 176.7304464 858.4740704 168 901 168 C 943.5259296 168 978 176.7304464 978 187.5 C 978 198.2695536 943.5259296 207 901 207 C 858.4740704 207 824 198.2695536 824 187.5 Z"/></g><g transform="translate(-38,-6) scale(1,1)"><path fill="none" stroke="#000000" d="M 824 187.5 C 824 176.7304464 858.4740704 168 901 168 C 943.5259296 168 978 176.7304464 978 187.5 C 978 198.2695536 943.5259296 207 901 207 C 858.4740704 207 824 198.2695536 824 187.5 Z" stroke-miterlimit="10"/></g><g transform="translate(-38,-6) scale(1,1)"><g><path fill="none" stroke="none"/><text fill="#000000" stroke="none" font-family="Arial" font-size="13px" font-style="normal" font-weight="bold" text-decoration="none" x="855.5" y="194.5">GestionarGrado</text></g></g><g transform="translate(-38,-6) scale(1,1)"><path fill="#C0C0C0" stroke="none" d="M 815 258.5 C 815 247.7304464 853.2796496 239 900.5 239 C 947.7203504 239 986 247.7304464 986 258.5 C 986 269.2695536 947.7203504 278 900.5 278 C 853.2796496 278 815 269.2695536 815 258.5 Z" opacity="0.2"/></g><g transform="translate(-38,-6) scale(1,1)"><path fill="#ffffff" stroke="none" d="M 808 251.5 C 808 240.7304464 846.2796496 232 893.5 232 C 940.7203504 232 979 240.7304464 979 251.5 C 979 262.2695536 940.7203504 271 893.5 271 C 846.2796496 271 808 262.2695536 808 251.5 Z"/></g><g transform="translate(-38,-6) scale(1,1)"><path fill="none" stroke="#000000" d="M 808 251.5 C 808 240.7304464 846.2796496 232 893.5 232 C 940.7203504 232 979 240.7304464 979 251.5 C 979 262.2695536 940.7203504 271 893.5 271 C 846.2796496 271 808 262.2695536 808 251.5 Z" stroke-miterlimit="10"/></g><g transform="translate(-38,-6) scale(1,1)"><g><path fill="none" stroke="none"/><text fill="#000000" stroke="none" font-family="Arial" font-size="13px" font-style="normal" font-weight="bold" text-decoration="none" x="842" y="258.5">GestionarSección</text></g></g><g transform="translate(-38,-6) scale(1,1)"><path fill="none" stroke="#000000" d="M 635 195 L 807 232" stroke-miterlimit="10" stroke-dasharray="3"/></g><g transform="translate(-38,-6) scale(1,1)"><path fill="none" stroke="#000000" d="M 796.1793216094288 233.97810999891945 L 807 232 L 797.9498899388195 225.74735992715722" stroke-miterlimit="10"/></g><g transform="translate(-38,-6) scale(1,1)"><g><path fill="none" stroke="none"/><text fill="#000000" stroke="none" font-family="Arial" font-size="13px" font-style="normal" font-weight="normal" text-decoration="none" x="699.5" y="189.5">«include»</text></g></g><g transform="translate(-38,-6) scale(1,1)"><path fill="none" stroke="#000000" d="M 665 180 L 823 185" stroke-miterlimit="10" stroke-dasharray="3"/></g><g transform="translate(-38,-6) scale(1,1)"><path fill="none" stroke="#000000" d="M 812.7092640537388 188.88596882184208 L 823 185 L 812.9755559235946 180.47114573440263" stroke-miterlimit="10"/></g><g transform="translate(-38,-6) scale(1,1)"><g><path fill="none" stroke="none"/><text fill="#000000" stroke="none" font-family="Arial" font-size="13px" font-style="normal" font-weight="normal" text-decoration="none" x="717.5" y="158.5">«include»</text></g></g><g transform="translate(-38,-6) scale(1,1)"><path fill="#C0C0C0" stroke="none" d="M 455 232 C 455 222.6111584 501.3385232 215 558.5 215 C 615.6614768 215 662 222.6111584 662 232 C 662 241.3888416 615.6614768 249 558.5 249 C 501.3385232 249 455 241.3888416 455 232 Z" opacity="0.2"/></g><g transform="translate(-38,-6) scale(1,1)"><path fill="#ffffff" stroke="none" d="M 448 225 C 448 215.6111584 494.3385232 208 551.5 208 C 608.6614768 208 655 215.6111584 655 225 C 655 234.3888416 608.6614768 242 551.5 242 C 494.3385232 242 448 234.3888416 448 225 Z"/></g><g transform="translate(-38,-6) scale(1,1)"><path fill="none" stroke="#000000" d="M 448 225 C 448 215.6111584 494.3385232 208 551.5 208 C 608.6614768 208 655 215.6111584 655 225 C 655 234.3888416 608.6614768 242 551.5 242 C 494.3385232 242 448 234.3888416 448 225 Z" stroke-miterlimit="10"/></g><g transform="translate(-38,-6) scale(1,1)"><g><path fill="none" stroke="none"/><text fill="#000000" stroke="none" font-family="Arial" font-size="13px" font-style="normal" font-weight="bold" text-decoration="none" x="490" y="232">GestionarAñoEscolar</text></g></g><g transform="translate(-38,-6) scale(1,1)"><path fill="none" stroke="#00ff00" d="M 134 171 L 447 212" stroke-miterlimit="10"/></g></g></svg>