<svg version="1.1" xmlns="http://www.w3.org/2000/svg" xmlns:xlink="http://www.w3.org/1999/xlink" width="692" height="371"><defs/><g><text fill="#eeeeee" stroke="none" font-family="Arial" font-size="24px" font-style="normal" font-weight="normal" text-decoration="none" x="0" y="0">UNREGISTERED</text><text fill="#eeeeee" stroke="none" font-family="Arial" font-size="24px" font-style="normal" font-weight="normal" text-decoration="none" x="0" y="30">UNREGISTERED</text><text fill="#eeeeee" stroke="none" font-family="Arial" font-size="24px" font-style="normal" font-weight="normal" text-decoration="none" x="0" y="60">UNREGISTERED</text><text fill="#eeeeee" stroke="none" font-family="Arial" font-size="24px" font-style="normal" font-weight="normal" text-decoration="none" x="0" y="90">UNREGISTERED</text><text fill="#eeeeee" stroke="none" font-family="Arial" font-size="24px" font-style="normal" font-weight="normal" text-decoration="none" x="0" y="120">UNREGISTERED</text><text fill="#eeeeee" stroke="none" font-family="Arial" font-size="24px" font-style="normal" font-weight="normal" text-decoration="none" x="0" y="150">UNREGISTERED</text><text fill="#eeeeee" stroke="none" font-family="Arial" font-size="24px" font-style="normal" font-weight="normal" text-decoration="none" x="0" y="180">UNREGISTERED</text><text fill="#eeeeee" stroke="none" font-family="Arial" font-size="24px" font-style="normal" font-weight="normal" text-decoration="none" x="0" y="210">UNREGISTERED</text><text fill="#eeeeee" stroke="none" font-family="Arial" font-size="24px" font-style="normal" font-weight="normal" text-decoration="none" x="0" y="240">UNREGISTERED</text><text fill="#eeeeee" stroke="none" font-family="Arial" font-size="24px" font-style="normal" font-weight="normal" text-decoration="none" x="0" y="270">UNREGISTERED</text><text fill="#eeeeee" stroke="none" font-family="Arial" font-size="24px" font-style="normal" font-weight="normal" text-decoration="none" x="0" y="300">UNREGISTERED</text><text fill="#eeeeee" stroke="none" font-family="Arial" font-size="24px" font-style="normal" font-weight="normal" text-decoration="none" x="0" y="330">UNREGISTERED</text><text fill="#eeeeee" stroke="none" font-family="Arial" font-size="24px" font-style="normal" font-weight="normal" text-decoration="none" x="0" y="360">UNREGISTERED</text><text fill="#eeeeee" stroke="none" font-family="Arial" font-size="24px" font-style="normal" font-weight="normal" text-decoration="none" x="200" y="0">UNREGISTERED</text><text fill="#eeeeee" stroke="none" font-family="Arial" font-size="24px" font-style="normal" font-weight="normal" text-decoration="none" x="200" y="30">UNREGISTERED</text><text fill="#eeeeee" stroke="none" font-family="Arial" font-size="24px" font-style="normal" font-weight="normal" text-decoration="none" x="200" y="60">UNREGISTERED</text><text fill="#eeeeee" stroke="none" font-family="Arial" font-size="24px" font-style="normal" font-weight="normal" text-decoration="none" x="200" y="90">UNREGISTERED</text><text fill="#eeeeee" stroke="none" font-family="Arial" font-size="24px" font-style="normal" font-weight="normal" text-decoration="none" x="200" y="120">UNREGISTERED</text><text fill="#eeeeee" stroke="none" font-family="Arial" font-size="24px" font-style="normal" font-weight="normal" text-decoration="none" x="200" y="150">UNREGISTERED</text><text fill="#eeeeee" stroke="none" font-family="Arial" font-size="24px" font-style="normal" font-weight="normal" text-decoration="none" x="200" y="180">UNREGISTERED</text><text fill="#eeeeee" stroke="none" font-family="Arial" font-size="24px" font-style="normal" font-weight="normal" text-decoration="none" x="200" y="210">UNREGISTERED</text><text fill="#eeeeee" stroke="none" font-family="Arial" font-size="24px" font-style="normal" font-weight="normal" text-decoration="none" x="200" y="240">UNREGISTERED</text><text fill="#eeeeee" stroke="none" font-family="Arial" font-size="24px" font-style="normal" font-weight="normal" text-decoration="none" x="200" y="270">UNREGISTERED</text><text fill="#eeeeee" stroke="none" font-family="Arial" font-size="24px" font-style="normal" font-weight="normal" text-decoration="none" x="200" y="300">UNREGISTERED</text><text fill="#eeeeee" stroke="none" font-family="Arial" font-size="24px" font-style="normal" font-weight="normal" text-decoration="none" x="200" y="330">UNREGISTERED</text><text fill="#eeeeee" stroke="none" font-family="Arial" font-size="24px" font-style="normal" font-weight="normal" text-decoration="none" x="200" y="360">UNREGISTERED</text><text fill="#eeeeee" stroke="none" font-family="Arial" font-size="24px" font-style="normal" font-weight="normal" text-decoration="none" x="400" y="0">UNREGISTERED</text><text fill="#eeeeee" stroke="none" font-family="Arial" font-size="24px" font-style="normal" font-weight="normal" text-decoration="none" x="400" y="30">UNREGISTERED</text><text fill="#eeeeee" stroke="none" font-family="Arial" font-size="24px" font-style="normal" font-weight="normal" text-decoration="none" x="400" y="60">UNREGISTERED</text><text fill="#eeeeee" stroke="none" font-family="Arial" font-size="24px" font-style="normal" font-weight="normal" text-decoration="none" x="400" y="90">UNREGISTERED</text><text fill="#eeeeee" stroke="none" font-family="Arial" font-size="24px" font-style="normal" font-weight="normal" text-decoration="none" x="400" y="120">UNREGISTERED</text><text fill="#eeeeee" stroke="none" font-family="Arial" font-size="24px" font-style="normal" font-weight="normal" text-decoration="none" x="400" y="150">UNREGISTERED</text><text fill="#eeeeee" stroke="none" font-family="Arial" font-size="24px" font-style="normal" font-weight="normal" text-decoration="none" x="400" y="180">UNREGISTERED</text><text fill="#eeeeee" stroke="none" font-family="Arial" font-size="24px" font-style="normal" font-weight="normal" text-decoration="none" x="400" y="210">UNREGISTERED</text><text fill="#eeeeee" stroke="none" font-family="Arial" font-size="24px" font-style="normal" font-weight="normal" text-decoration="none" x="400" y="240">UNREGISTERED</text><text fill="#eeeeee" stroke="none" font-family="Arial" font-size="24px" font-style="normal" font-weight="normal" text-decoration="none" x="400" y="270">UNREGISTERED</text><text fill="#eeeeee" stroke="none" font-family="Arial" font-size="24px" font-style="normal" font-weight="normal" text-decoration="none" x="400" y="300">UNREGISTERED</text><text fill="#eeeeee" stroke="none" font-family="Arial" font-size="24px" font-style="normal" font-weight="normal" text-decoration="none" x="400" y="330">UNREGISTERED</text><text fill="#eeeeee" stroke="none" font-family="Arial" font-size="24px" font-style="normal" font-weight="normal" text-decoration="none" x="400" y="360">UNREGISTERED</text><text fill="#eeeeee" stroke="none" font-family="Arial" font-size="24px" font-style="normal" font-weight="normal" text-decoration="none" x="600" y="0">UNREGISTERED</text><text fill="#eeeeee" stroke="none" font-family="Arial" font-size="24px" font-style="normal" font-weight="normal" text-decoration="none" x="600" y="30">UNREGISTERED</text><text fill="#eeeeee" stroke="none" font-family="Arial" font-size="24px" font-style="normal" font-weight="normal" text-decoration="none" x="600" y="60">UNREGISTERED</text><text fill="#eeeeee" stroke="none" font-family="Arial" font-size="24px" font-style="normal" font-weight="normal" text-decoration="none" x="600" y="90">UNREGISTERED</text><text fill="#eeeeee" stroke="none" font-family="Arial" font-size="24px" font-style="normal" font-weight="normal" text-decoration="none" x="600" y="120">UNREGISTERED</text><text fill="#eeeeee" stroke="none" font-family="Arial" font-size="24px" font-style="normal" font-weight="normal" text-decoration="none" x="600" y="150">UNREGISTERED</text><text fill="#eeeeee" stroke="none" font-family="Arial" font-size="24px" font-style="normal" font-weight="normal" text-decoration="none" x="600" y="180">UNREGISTERED</text><text fill="#eeeeee" stroke="none" font-family="Arial" font-size="24px" font-style="normal" font-weight="normal" text-decoration="none" x="600" y="210">UNREGISTERED</text><text fill="#eeeeee" stroke="none" font-family="Arial" font-size="24px" font-style="normal" font-weight="normal" text-decoration="none" x="600" y="240">UNREGISTERED</text><text fill="#eeeeee" stroke="none" font-family="Arial" font-size="24px" font-style="normal" font-weight="normal" text-decoration="none" x="600" y="270">UNREGISTERED</text><text fill="#eeeeee" stroke="none" font-family="Arial" font-size="24px" font-style="normal" font-weight="normal" text-decoration="none" x="600" y="300">UNREGISTERED</text><text fill="#eeeeee" stroke="none" font-family="Arial" font-size="24px" font-style="normal" font-weight="normal" text-decoration="none" x="600" y="330">UNREGISTERED</text><text fill="#eeeeee" stroke="none" font-family="Arial" font-size="24px" font-style="normal" font-weight="normal" text-decoration="none" x="600" y="360">UNREGISTERED</text><g transform="translate(-38,-30) scale(1,1)"><rect fill="#C0C0C0" stroke="none" x="255" y="47" width="472" height="304" opacity="0.2"/></g><g transform="translate(-38,-30) scale(1,1)"><rect fill="#ffffff" stroke="none" x="248" y="40" width="472" height="304"/></g><g transform="translate(-38,-30) scale(1,1)"><path fill="none" stroke="#000000" d="M 248 40 L 720 40 L 720 344 L 248 344 L 248 40 Z Z" stroke-miterlimit="10"/></g><g transform="translate(-38,-30) scale(1,1)"><g><path fill="none" stroke="none"/><text fill="#000000" stroke="none" font-family="Arial" font-size="13px" font-style="normal" font-weight="bold" text-decoration="none" x="418" y="59.5">Sistema de Inscripción</text></g></g><g transform="translate(-38,-30) scale(1,1)"><path fill="#ffffff" stroke="none" d="M 93.82072727272727 137.68 C 93.82072727272727 132.886167936 97.70656959767273 129 102.5 129 C 107.29343040232727 129 111.17927272727273 132.886167936 111.17927272727273 137.68 C 111.17927272727273 142.47383206400002 107.29343040232727 146.36 102.5 146.36 C 97.70656959767273 146.36 93.82072727272727 142.47383206400002 93.82072727272727 137.68 Z"/></g><g transform="translate(-38,-30) scale(1,1)"><path fill="none" stroke="#000000" d="M 93.82072727272727 137.68 C 93.82072727272727 132.886167936 97.70656959767273 129 102.5 129 C 107.29343040232727 129 111.17927272727273 132.886167936 111.17927272727273 137.68 C 111.17927272727273 142.47383206400002 107.29343040232727 146.36 102.5 146.36 C 97.70656959767273 146.36 93.82072727272727 142.47383206400002 93.82072727272727 137.68 Z" stroke-miterlimit="10"/></g><g transform="translate(-38,-30) scale(1,1)"><path fill="none" stroke="#000000" d="M 102.5 146.36 L 102.5 163.64" stroke-miterlimit="10"/></g><g transform="translate(-38,-30) scale(1,1)"><path fill="none" stroke="#000000" d="M 93.31018181818182 152.84 L 111.68981818181818 152.84" stroke-miterlimit="10"/></g><g transform="translate(-38,-30) scale(1,1)"><path fill="none" stroke="#000000" d="M 102.5 163.64 L 89.73636363636363 181" stroke-miterlimit="10"/></g><g transform="translate(-38,-30) scale(1,1)"><path fill="none" stroke="#000000" d="M 102.5 163.64 L 115.26363636363637 181" stroke-miterlimit="10"/></g><g transform="translate(-38,-30) scale(1,1)"><g><path fill="none" stroke="none"/><text fill="#000000" stroke="none" font-family="Arial" font-size="13px" font-style="normal" font-weight="bold" text-decoration="none" x="78.5" y="201.5">Docente</text></g></g><g transform="translate(-38,-30) scale(1,1)"><path fill="#ffffff" stroke="none" d="M 92.82072727272727 321.68 C 92.82072727272727 316.886167936 96.70656959767273 313 101.5 313 C 106.29343040232727 313 110.17927272727273 316.886167936 110.17927272727273 321.68 C 110.17927272727273 326.473832064 106.29343040232727 330.36 101.5 330.36 C 96.70656959767273 330.36 92.82072727272727 326.473832064 92.82072727272727 321.68 Z"/></g><g transform="translate(-38,-30) scale(1,1)"><path fill="none" stroke="#000000" d="M 92.82072727272727 321.68 C 92.82072727272727 316.886167936 96.70656959767273 313 101.5 313 C 106.29343040232727 313 110.17927272727273 316.886167936 110.17927272727273 321.68 C 110.17927272727273 326.473832064 106.29343040232727 330.36 101.5 330.36 C 96.70656959767273 330.36 92.82072727272727 326.473832064 92.82072727272727 321.68 Z" stroke-miterlimit="10"/></g><g transform="translate(-38,-30) scale(1,1)"><path fill="none" stroke="#000000" d="M 101.5 330.36 L 101.5 347.64" stroke-miterlimit="10"/></g><g transform="translate(-38,-30) scale(1,1)"><path fill="none" stroke="#000000" d="M 92.31018181818182 336.84 L 110.68981818181818 336.84" stroke-miterlimit="10"/></g><g transform="translate(-38,-30) scale(1,1)"><path fill="none" stroke="#000000" d="M 101.5 347.64 L 88.73636363636363 365" stroke-miterlimit="10"/></g><g transform="translate(-38,-30) scale(1,1)"><path fill="none" stroke="#000000" d="M 101.5 347.64 L 114.26363636363637 365" stroke-miterlimit="10"/></g><g transform="translate(-38,-30) scale(1,1)"><g><path fill="none" stroke="none"/><text fill="#000000" stroke="none" font-family="Arial" font-size="13px" font-style="normal" font-weight="bold" text-decoration="none" x="75.5" y="385.5">Directora</text></g></g><g transform="translate(-38,-30) scale(1,1)"><path fill="#C0C0C0" stroke="none" d="M 327 96 C 327 86.6111584 396.8435712 79 483 79 C 569.1564288 79 639 86.6111584 639 96 C 639 105.3888416 569.1564288 113 483 113 C 396.8435712 113 327 105.3888416 327 96 Z" opacity="0.2"/></g><g transform="translate(-38,-30) scale(1,1)"><path fill="#ffffff" stroke="none" d="M 320 89 C 320 79.6111584 389.8435712 72 476 72 C 562.1564288 72 632 79.6111584 632 89 C 632 98.3888416 562.1564288 106 476 106 C 389.8435712 106 320 98.3888416 320 89 Z"/></g><g transform="translate(-38,-30) scale(1,1)"><path fill="none" stroke="#000000" d="M 320 89 C 320 79.6111584 389.8435712 72 476 72 C 562.1564288 72 632 79.6111584 632 89 C 632 98.3888416 562.1564288 106 476 106 C 389.8435712 106 320 98.3888416 320 89 Z" stroke-miterlimit="10"/></g><g transform="translate(-38,-30) scale(1,1)"><g><path fill="none" stroke="none"/><text fill="#000000" stroke="none" font-family="Arial" font-size="13px" font-style="normal" font-weight="bold" text-decoration="none" x="395" y="96">GestionarInscripcionRegular</text></g></g><g transform="translate(-38,-30) scale(1,1)"><path fill="#C0C0C0" stroke="none" d="M 391 168 C 391 158.6111584 462.634432 151 551 151 C 639.3655679999999 151 711 158.6111584 711 168 C 711 177.3888416 639.3655679999999 185 551 185 C 462.634432 185 391 177.3888416 391 168 Z" opacity="0.2"/></g><g transform="translate(-38,-30) scale(1,1)"><path fill="#ffffff" stroke="none" d="M 384 161 C 384 151.6111584 455.634432 144 544 144 C 632.3655679999999 144 704 151.6111584 704 161 C 704 170.3888416 632.3655679999999 178 544 178 C 455.634432 178 384 170.3888416 384 161 Z"/></g><g transform="translate(-38,-30) scale(1,1)"><path fill="none" stroke="#000000" d="M 384 161 C 384 151.6111584 455.634432 144 544 144 C 632.3655679999999 144 704 151.6111584 704 161 C 704 170.3888416 632.3655679999999 178 544 178 C 455.634432 178 384 170.3888416 384 161 Z" stroke-miterlimit="10"/></g><g transform="translate(-38,-30) scale(1,1)"><g><path fill="none" stroke="none"/><text fill="#000000" stroke="none" font-family="Arial" font-size="13px" font-style="normal" font-weight="bold" text-decoration="none" x="446.5" y="168">GestionarInscripcionNuevoIngreso</text></g></g><g transform="translate(-38,-30) scale(1,1)"><path fill="#C0C0C0" stroke="none" d="M 391 248 C 391 238.6111584 462.4105744 231 550.5 231 C 638.5894256 231 710 238.6111584 710 248 C 710 257.3888416 638.5894256 265 550.5 265 C 462.4105744 265 391 257.3888416 391 248 Z" opacity="0.2"/></g><g transform="translate(-38,-30) scale(1,1)"><path fill="#ffffff" stroke="none" d="M 384 241 C 384 231.6111584 455.4105744 224 543.5 224 C 631.5894256 224 703 231.6111584 703 241 C 703 250.3888416 631.5894256 258 543.5 258 C 455.4105744 258 384 250.3888416 384 241 Z"/></g><g transform="translate(-38,-30) scale(1,1)"><path fill="none" stroke="#000000" d="M 384 241 C 384 231.6111584 455.4105744 224 543.5 224 C 631.5894256 224 703 231.6111584 703 241 C 703 250.3888416 631.5894256 258 543.5 258 C 455.4105744 258 384 250.3888416 384 241 Z" stroke-miterlimit="10"/></g><g transform="translate(-38,-30) scale(1,1)"><g><path fill="none" stroke="none"/><text fill="#000000" stroke="none" font-family="Arial" font-size="13px" font-style="normal" font-weight="bold" text-decoration="none" x="495" y="248">GestionarEgreso</text></g></g><g transform="translate(-38,-30) scale(1,1)"><path fill="#C0C0C0" stroke="none" d="M 327 312 C 327 302.6111584 398.4105744 295 486.5 295 C 574.5894256 295 646 302.6111584 646 312 C 646 321.3888416 574.5894256 329 486.5 329 C 398.4105744 329 327 321.3888416 327 312 Z" opacity="0.2"/></g><g transform="translate(-38,-30) scale(1,1)"><path fill="#ffffff" stroke="none" d="M 320 305 C 320 295.6111584 391.4105744 288 479.5 288 C 567.5894256 288 639 295.6111584 639 305 C 639 314.3888416 567.5894256 322 479.5 322 C 391.4105744 322 320 314.3888416 320 305 Z"/></g><g transform="translate(-38,-30) scale(1,1)"><path fill="none" stroke="#000000" d="M 320 305 C 320 295.6111584 391.4105744 288 479.5 288 C 567.5894256 288 639 295.6111584 639 305 C 639 314.3888416 567.5894256 322 479.5 322 C 391.4105744 322 320 314.3888416 320 305 Z" stroke-miterlimit="10"/></g><g transform="translate(-38,-30) scale(1,1)"><g><path fill="none" stroke="none"/><text fill="#000000" stroke="none" font-family="Arial" font-size="13px" font-style="normal" font-weight="bold" text-decoration="none" x="385.5" y="312">GenerarReporteMatriculaEscolar</text></g></g><g transform="translate(-38,-30) scale(1,1)"><path fill="#ffffff" stroke="none" d="M 95.32072727272727 49.68 C 95.32072727272727 44.886167936 99.20656959767273 41 104 41 C 108.79343040232727 41 112.67927272727273 44.886167936 112.67927272727273 49.68 C 112.67927272727273 54.473832064 108.79343040232727 58.36 104 58.36 C 99.20656959767273 58.36 95.32072727272727 54.473832064 95.32072727272727 49.68 Z"/></g><g transform="translate(-38,-30) scale(1,1)"><path fill="none" stroke="#000000" d="M 95.32072727272727 49.68 C 95.32072727272727 44.886167936 99.20656959767273 41 104 41 C 108.79343040232727 41 112.67927272727273 44.886167936 112.67927272727273 49.68 C 112.67927272727273 54.473832064 108.79343040232727 58.36 104 58.36 C 99.20656959767273 58.36 95.32072727272727 54.473832064 95.32072727272727 49.68 Z" stroke-miterlimit="10"/></g><g transform="translate(-38,-30) scale(1,1)"><path fill="none" stroke="#000000" d="M 104 58.36 L 104 75.64" stroke-miterlimit="10"/></g><g transform="translate(-38,-30) scale(1,1)"><path fill="none" stroke="#000000" d="M 94.81018181818182 64.84 L 113.18981818181818 64.84" stroke-miterlimit="10"/></g><g transform="translate(-38,-30) scale(1,1)"><path fill="none" stroke="#000000" d="M 104 75.64 L 91.23636363636363 93" stroke-miterlimit="10"/></g><g transform="translate(-38,-30) scale(1,1)"><path fill="none" stroke="#000000" d="M 104 75.64 L 116.76363636363637 93" stroke-miterlimit="10"/></g><g transform="translate(-38,-30) scale(1,1)"><g><path fill="none" stroke="none"/><text fill="#000000" stroke="none" font-family="Arial" font-size="13px" font-style="normal" font-weight="bold" text-decoration="none" x="62" y="113.5">Representante</text></g></g><g transform="translate(-38,-30) scale(1,1)"><path fill="#ffffff" stroke="none" d="M 92.82072727272727 225.68 C 92.82072727272727 220.886167936 96.70656959767273 217 101.5 217 C 106.29343040232727 217 110.17927272727273 220.886167936 110.17927272727273 225.68 C 110.17927272727273 230.47383206400002 106.29343040232727 234.36 101.5 234.36 C 96.70656959767273 234.36 92.82072727272727 230.47383206400002 92.82072727272727 225.68 Z"/></g><g transform="translate(-38,-30) scale(1,1)"><path fill="none" stroke="#000000" d="M 92.82072727272727 225.68 C 92.82072727272727 220.886167936 96.70656959767273 217 101.5 217 C 106.29343040232727 217 110.17927272727273 220.886167936 110.17927272727273 225.68 C 110.17927272727273 230.47383206400002 106.29343040232727 234.36 101.5 234.36 C 96.70656959767273 234.36 92.82072727272727 230.47383206400002 92.82072727272727 225.68 Z" stroke-miterlimit="10"/></g><g transform="translate(-38,-30) scale(1,1)"><path fill="none" stroke="#000000" d="M 101.5 234.36 L 101.5 251.64" stroke-miterlimit="10"/></g><g transform="translate(-38,-30) scale(1,1)"><path fill="none" stroke="#000000" d="M 92.31018181818182 240.84 L 110.68981818181818 240.84" stroke-miterlimit="10"/></g><g transform="translate(-38,-30) scale(1,1)"><path fill="none" stroke="#000000" d="M 101.5 251.64 L 88.73636363636363 269" stroke-miterlimit="10"/></g><g transform="translate(-38,-30) scale(1,1)"><path fill="none" stroke="#000000" d="M 101.5 251.64 L 114.26363636363637 269" stroke-miterlimit="10"/></g><g transform="translate(-38,-30) scale(1,1)"><g><path fill="none" stroke="none"/><text fill="#000000" stroke="none" font-family="Arial" font-size="13px" font-style="normal" font-weight="bold" text-decoration="none" x="65" y="289.5">Subdirectora</text></g></g><g transform="translate(-38,-30) scale(1,1)"><path fill="none" stroke="#000000" d="M 140 334 L 502 179" stroke-miterlimit="10"/></g><g transform="translate(-38,-30) scale(1,1)"><path fill="none" stroke="#000000" d="M 140 324 L 450 107" stroke-miterlimit="10"/></g><g transform="translate(-38,-30) scale(1,1)"><path fill="none" stroke="#2b2bff" d="M 161 81 L 319 85" stroke-miterlimit="10"/></g><g transform="translate(-38,-30) scale(1,1)"><path fill="none" stroke="#ff0000" d="M 148 254 L 383 246" stroke-miterlimit="10"/></g><g transform="translate(-38,-30) scale(1,1)"><path fill="none" stroke="#2b2bff" d="M 161 90 L 447 143" stroke-miterlimit="10"/></g><g transform="translate(-38,-30) scale(1,1)"><path fill="none" stroke="#00ff00" d="M 134 179 L 430 287" stroke-miterlimit="10"/></g><g transform="translate(-38,-30) scale(1,1)"><path fill="none" stroke="#00ff00" d="M 134 167 L 383 163" stroke-miterlimit="10"/></g><g transform="translate(-38,-30) scale(1,1)"><path fill="none" stroke="#00ff00" d="M 134 160 L 390 107" stroke-miterlimit="10"/></g><g transform="translate(-38,-30) scale(1,1)"><path fill="none" stroke="#ff0000" d="M 148 245 L 459 179" stroke-miterlimit="10"/></g><g transform="translate(-38,-30) scale(1,1)"><path fill="none" stroke="#ff0000" d="M 148 234 L 435 107" stroke-miterlimit="10"/></g></g></svg>